<svg width="24" height="24" viewBox="0 0 24 24" fill="none" xmlns="http://www.w3.org/2000/svg">
  <path d="M2 12C2 12 4 8 8 8C12 8 14 12 18 12C20 12 22 10 22 10" stroke="currentColor" stroke-width="2" stroke-linecap="round" stroke-linejoin="round"/>
  <path d="M2 16C2 16 4 12 8 12C12 12 14 16 18 16C20 16 22 14 22 14" stroke="currentColor" stroke-width="2" stroke-linecap="round" stroke-linejoin="round"/>
  <path d="M2 20C2 20 4 16 8 16C12 16 14 20 18 20C20 20 22 18 22 18" stroke="currentColor" stroke-width="2" stroke-linecap="round" stroke-linejoin="round"/>
</svg>








